<?xml version="1.0" standalone="no"?>
<!DOCTYPE svg PUBLIC "-//W3C//DTD SVG 20010904//EN"
 "http://www.w3.org/TR/2001/REC-SVG-20010904/DTD/svg10.dtd">
<svg version="1.0" xmlns="http://www.w3.org/2000/svg"
 width="512.000000pt" height="512.000000pt" viewBox="0 0 512.000000 512.000000"
 preserveAspectRatio="xMidYMid meet">

<g transform="translate(0.000000,512.000000) scale(0.100000,-0.100000)"
fill="#000000" stroke="none">
<path d="M2160 4705 c-1146 -115 -2011 -669 -2146 -1373 -19 -100 -18 -269 2
-346 43 -165 155 -309 299 -383 28 -14 51 -27 53 -28 2 -2 -10 -27 -26 -56
-90 -162 -81 -365 23 -520 l34 -50 -53 -54 c-131 -130 -169 -330 -96 -500 11
-26 19 -49 18 -50 -2 -1 -25 -11 -52 -22 -149 -63 -216 -179 -216 -372 0 -224
121 -426 307 -514 l68 -32 2185 0 2185 0 68 32 c186 88 307 290 307 514 0 193
-67 309 -216 372 -27 11 -50 21 -52 22 -1 1 7 24 18 50 73 170 35 370 -96 500
l-53 54 34 50 c104 155 113 358 23 520 -16 29 -28 54 -26 56 2 1 26 14 53 28
144 74 256 218 299 383 20 77 21 246 2 346 -63 327 -283 627 -636 867 -411
280 -917 448 -1525 506 -182 18 -607 18 -785 0z m777 -240 c699 -71 1266 -299
1624 -655 227 -224 326 -436 317 -677 -3 -85 -7 -106 -32 -156 -36 -71 -108
-140 -184 -175 l-57 -27 -2015 -3 c-1515 -2 -2029 0 -2070 9 -103 22 -198 98
-248 199 -23 46 -28 71 -30 155 -8 239 92 453 317 675 362 359 938 589 1651
659 144 14 572 12 727 -4z m1489 -1950 c103 -31 174 -127 174 -237 0 -44 -4
-60 -16 -65 -30 -11 -94 18 -217 101 -181 121 -287 155 -456 143 -140 -10
-201 -35 -376 -153 -129 -87 -200 -110 -305 -101 -87 8 -137 27 -220 84 -215
148 -309 181 -490 170 -136 -9 -233 -45 -360 -136 -100 -72 -131 -89 -195
-106 -135 -35 -227 -13 -380 89 -195 132 -253 152 -435 150 -173 -2 -203 -14
-485 -188 -53 -33 -124 -60 -134 -51 -3 4 -5 32 -5 63 2 120 91 221 213 242
25 4 854 8 1842 9 1554 1 1802 -1 1845 -14z m-3130 -327 c29 -10 86 -43 127
-72 41 -30 88 -61 103 -70 27 -14 -3 -15 -360 -16 -214 0 -387 2 -385 4 21 20
209 141 237 153 81 34 189 34 278 1z m1400 0 c28 -10 88 -44 132 -76 44 -31
89 -62 99 -69 14 -9 -66 -12 -367 -12 -302 0 -381 3 -366 12 10 7 51 36 92 65
40 29 94 62 121 74 88 39 195 41 289 6z m1374 10 c33 -9 239 -134 269 -164 2
-2 -169 -4 -380 -3 -301 0 -380 3 -366 12 10 7 54 37 98 69 142 100 236 122
379 86z m722 -1087 c77 -29 101 -85 86 -208 -12 -104 -77 -201 -162 -242 -42
-21 -43 -21 -2154 -21 -2347 0 -2149 -6 -2225 68 -65 62 -90 123 -95 229 -4
74 -1 98 12 118 20 31 66 55 125 65 25 4 1020 7 2211 6 1828 -1 2171 -3 2202
-15z"/>
<path d="M1868 4010 c-75 -59 -53 -173 38 -199 118 -33 193 123 96 199 -33 27
-101 27 -134 0z"/>
<path d="M3118 4010 c-75 -59 -53 -173 38 -199 118 -33 193 123 96 199 -33 27
-101 27 -134 0z"/>
<path d="M1195 3436 c-42 -18 -65 -57 -65 -107 0 -56 50 -109 105 -109 70 0
116 43 117 111 0 49 -24 87 -67 105 -42 17 -51 17 -90 0z"/>
<path d="M2513 3436 c-74 -33 -88 -123 -29 -182 28 -28 42 -34 75 -34 76 0
131 77 107 149 -20 62 -93 94 -153 67z"/>
<path d="M3833 3435 c-42 -18 -65 -56 -65 -104 1 -68 47 -111 117 -111 55 0
105 53 105 109 0 51 -24 89 -67 107 -40 17 -49 17 -90 -1z"/>
</g>
</svg>
